<svg width="239" height="76" viewBox="0 0 239 76" fill="none" xmlns="http://www.w3.org/2000/svg">
<path d="M147.962 35.234C148.841 33.7306 150.004 32.5463 151.451 31.6812C152.898 30.816 154.514 30.3834 156.301 30.3834V36.8083H154.557C150.16 36.8083 147.962 38.8506 147.962 42.9353V54.2957H141.963V30.7238H147.962V35.234ZM168.853 30.426C170.839 30.426 172.541 30.894 173.959 31.8301C175.377 32.7662 176.384 34.0284 176.98 35.6169V30.7238H182.937V54.2957H176.98V49.3601C176.384 50.9486 175.377 52.2179 173.959 53.1682C172.541 54.1184 170.839 54.5935 168.853 54.5935C166.868 54.5935 165.081 54.1113 163.492 53.1469C161.904 52.1825 160.663 50.7854 159.769 48.9559C158.876 47.1263 158.429 44.9776 158.429 42.5098C158.429 40.042 158.876 37.8933 159.769 36.0637C160.663 34.2341 161.904 32.8371 163.492 31.8726C165.081 30.9082 166.868 30.426 168.853 30.426ZM170.725 35.6595C168.853 35.6595 167.35 36.2693 166.215 37.489C165.081 38.7088 164.513 40.3823 164.513 42.5098C164.513 44.6372 165.081 46.3037 166.215 47.5092C167.35 48.7148 168.853 49.3175 170.725 49.3175C172.541 49.3175 174.037 48.7006 175.214 47.4667C176.391 46.2328 176.98 44.5805 176.98 42.5098C176.98 40.4107 176.391 38.7442 175.214 37.5103C174.037 36.2764 172.541 35.6595 170.725 35.6595ZM197.616 30.426C199.602 30.426 201.304 30.894 202.722 31.8301C204.14 32.7662 205.147 34.0284 205.743 35.6169V30.7238H211.7V54.2957H205.743V49.3601C205.147 50.9486 204.14 52.2179 202.722 53.1682C201.304 54.1184 199.602 54.5935 197.616 54.5935C195.63 54.5935 193.843 54.1113 192.255 53.1469C190.666 52.1825 189.425 50.7854 188.532 48.9559C187.638 47.1263 187.192 44.9776 187.192 42.5098C187.192 40.042 187.638 37.8933 188.532 36.0637C189.425 34.2341 190.666 32.8371 192.255 31.8726C193.843 30.9082 195.63 30.426 197.616 30.426ZM199.488 35.6595C197.616 35.6595 196.113 36.2693 194.978 37.489C193.843 38.7088 193.276 40.3823 193.276 42.5098C193.276 44.6372 193.843 46.3037 194.978 47.5092C196.113 48.7148 197.616 49.3175 199.488 49.3175C201.304 49.3175 202.8 48.7006 203.977 47.4667C205.154 46.2328 205.743 44.5805 205.743 42.5098C205.743 40.4107 205.154 38.7442 203.977 37.5103C202.8 36.2764 201.304 35.6595 199.488 35.6595ZM230.932 54.2957L223.145 43.999V54.2957H217.146V22.8098H223.145V40.51L230.889 30.7238H237.995L228.081 42.4672L238.25 54.2957H230.932Z" fill="#58CCF2"/>
<path d="M54.992 22.7421V54.228H48.9927V22.7421H54.992ZM82.9889 30.6561V54.228H76.9896V49.4626C76.3655 51.051 75.3373 52.292 73.9048 53.1856C72.4723 54.0791 70.82 54.5258 68.9479 54.5258C66.2248 54.5258 64.0548 53.6323 62.438 51.8453C60.8211 50.0582 60.0127 47.5621 60.0127 44.3567V30.6561H65.9695V43.676C65.9695 45.5481 66.4517 47.0018 67.4162 48.0372C68.3806 49.0725 69.6854 49.5902 71.3306 49.5902C73.0609 49.5902 74.4367 49.0371 75.4578 47.9308C76.479 46.8246 76.9896 45.2361 76.9896 43.1654V30.6561H82.9889ZM110.603 41.5485C110.603 42.1442 110.532 42.825 110.39 43.5909H93.1154C93.2005 45.6899 93.7678 47.2359 94.8174 48.2287C95.8669 49.2215 97.1717 49.7179 98.7318 49.7179C100.122 49.7179 101.278 49.3775 102.199 48.6967C103.121 48.0159 103.71 47.094 103.965 45.931H110.305C109.993 47.5763 109.326 49.0513 108.305 50.3561C107.284 51.6609 105.972 52.6821 104.369 53.4196C102.767 54.1571 100.987 54.5258 99.0297 54.5258C96.7321 54.5258 94.6897 54.0365 92.9027 53.0579C91.1157 52.0793 89.7257 50.6823 88.7329 48.8669C87.7401 47.0515 87.2437 44.9099 87.2437 42.4421C87.2437 39.9743 87.7401 37.8256 88.7329 35.996C89.7257 34.1664 91.1157 32.7694 92.9027 31.8049C94.6897 30.8405 96.7321 30.3583 99.0297 30.3583C101.356 30.3583 103.391 30.8405 105.135 31.8049C106.88 32.7694 108.227 34.0955 109.177 35.7832C110.128 37.471 110.603 39.3928 110.603 41.5485ZM104.561 40.9529C104.646 39.024 104.143 37.5632 103.05 36.5704C101.958 35.5776 100.618 35.0812 99.0297 35.0812C97.4128 35.0812 96.0513 35.5776 94.945 36.5704C93.8388 37.5632 93.2289 39.024 93.1154 40.9529H104.561Z" fill="#58CCF2"/>
<path d="M149.395 5.43311V6.84431H142.339V5.43311H149.395ZM150.857 0.876709V12.2372H131.61V72.4884H125.406V65.4232H123.995V72.4884H117.692V12.2372H98.5442V0.876709H150.857ZM135.284 5.43311V6.84431H128.228V5.43311H135.284ZM121.173 5.43311V6.84431H114.117V5.43311H121.173ZM107.062 5.43311V6.84431H100.006V5.43311H107.062Z" fill="#58CCF2"/>
<path d="M149.395 5.43311V6.84431H142.339V5.43311H149.395ZM135.284 5.43311V6.84431H128.228V5.43311H135.284ZM121.173 5.43311V6.84431H114.117V5.43311H121.173ZM107.062 5.43311V6.84431H100.006V5.43311H107.062ZM123.995 10.4455V15.9671H125.406V10.4455H123.995ZM123.995 23.0322H125.406V30.0974H123.995V23.0322ZM123.995 37.1626H125.406V44.2277H123.995V37.1626ZM123.995 51.2929H125.406V58.3581H123.995V51.2929ZM123.995 65.4232H125.406V72.4884H123.995V65.4232Z" fill="#FEFEFE"/>
<path d="M27.0255 37.9994L42.9583 22.4541C43.5649 21.8625 43.907 21.0508 43.907 20.2034C43.907 19.356 43.5649 18.5443 42.9583 17.9527L25.4737 0.893722C24.5683 0.0103217 23.222 -0.243678 22.0563 0.246222C20.8906 0.737522 20.1327 1.87942 20.1327 3.14432V31.2746L5.34107 16.8433C4.09777 15.6304 2.10717 15.6545 0.893866 16.8978C-0.319034 18.1411 -0.294534 20.1321 0.948766 21.345L18.0187 37.9997L0.948766 54.6544C-0.294534 55.8673 -0.318934 57.8583 0.893866 59.1016C2.10667 60.3449 4.09807 60.3693 5.34107 59.1561L20.1327 44.7248V72.8551C20.1327 74.12 20.8906 75.262 22.0563 75.7532C22.4505 75.9195 22.8652 75.9999 23.2768 75.9999C24.0822 75.9999 24.8744 75.6903 25.4736 75.1057L42.9582 58.0467C43.5648 57.4551 43.9069 56.6434 43.9069 55.796C43.9069 54.9486 43.5648 54.1369 42.9582 53.5453L27.0255 37.9994ZM26.4227 10.6061L36.2591 20.2031L26.4227 29.8001V10.6061ZM26.4227 65.3924V46.1984L36.2591 55.7954L26.4227 65.3924Z" fill="#58CCF2"/>
</svg>
